<svg viewBox="0 0 96 96" xmlns="http://www.w3.org/2000/svg" xmlns:xlink="http://www.w3.org/1999/xlink" id="Icons_Crib" overflow="hidden"><g><rect x="66" y="30" width="8" height="8" stroke="none" stroke-width="1" stroke-linecap="butt" fill="#484848" fill-opacity="1"/><path d="M84 28C81.8 28 80 29.8 80 32L80 44 16 44 16 32C16 29.8 14.2 28 12 28 9.8 28 8 29.8 8 32L8 80C8 82.2 9.8 84 12 84 14.2 84 16 82.2 16 80L16 75.7C25.7 74 36.7 73 48 73 59.4 73 70.3 73.9 80 75.7L80 80C80 82.2 81.8 84 84 84 86.2 84 88 82.2 88 80L88 32C88 29.8 86.2 28 84 28ZM39 50 45 50 45 67C43 67 41 67.1 39 67.2L39 50ZM33 67.5C31 67.6 29 67.8 27 68L27 50 33 50 33 67.5ZM51 50 57 50 57 67.2C55 67.1 53 67.1 51 67L51 50ZM63 50 69 50 69 68.1C67 67.9 65 67.7 63 67.6L63 50ZM16 50 21 50 21 68.8C19.3 69 17.6 69.3 16 69.6L16 50ZM75 68.8 75 50 80 50 80 69.6C78.4 69.3 76.7 69 75 68.8Z" stroke="none" stroke-width="1" stroke-linecap="butt" fill="#484848" fill-opacity="1"/><path d="M52.2 40 62 40 57.1 32Z" stroke="none" stroke-width="1" stroke-linecap="butt" fill="#484848" fill-opacity="1"/><path d="M44 27.8C44.3 27.9 44.6 28 44.8 28 45.6 28 46.3 27.6 46.6 26.8 48 23.8 51.2 21.7 54.9 21.1L54.9 28C54.9 29.1 55.8 30 56.9 30 58 30 58.9 29.1 58.9 28L58.9 21.2C62.6 21.8 65.7 23.8 67.1 26.7 67.6 27.7 68.8 28.1 69.8 27.6 70.8 27.1 71.2 25.9 70.7 24.9 68.6 20.7 64.1 17.7 58.9 17.1L58.9 16 67.9 16C73.6 16 79 19.6 81.1 24.7 81.5 25.7 82.7 26.2 83.7 25.8 84.7 25.4 85.2 24.2 84.8 23.2 82.2 16.6 75.3 12 68 12L55 12 55 17.1C49.7 17.7 45.1 20.7 43.1 25.1 42.6 26.2 43 27.4 44 27.8Z" stroke="none" stroke-width="1" stroke-linecap="butt" fill="#484848" fill-opacity="1"/><circle cx="43.5" cy="34.5" r="4.5" stroke="none" stroke-width="1" stroke-linecap="butt" fill="#484848" fill-opacity="1"/></g></svg>